<?xml version="1.0" standalone="no"?>
<!DOCTYPE svg PUBLIC "-//W3C//DTD SVG 20010904//EN"
 "http://www.w3.org/TR/2001/REC-SVG-20010904/DTD/svg10.dtd">
<svg version="1.0" xmlns="http://www.w3.org/2000/svg"
 width="3142.000000pt" height="810.000000pt" viewBox="0 0 3142.000000 810.000000"
 preserveAspectRatio="xMidYMid meet">
<metadata>
Created by potrace 1.13, written by Peter Selinger 2001-2015
</metadata>
<g transform="translate(0.000000,810.000000) scale(0.100000,-0.100000)"
fill="#000000" stroke="none">
<path d="M14425 6120 c-140 -21 -324 -85 -443 -155 -319 -187 -479 -540 -458
-1010 15 -332 108 -718 275 -1133 22 -56 41 -106 41 -111 0 -27 -1168 -142
-1995 -196 -1979 -128 -4802 -152 -7615 -64 -195 6 -357 13 -359 15 -7 6 43
97 85 153 23 31 77 85 118 119 148 121 265 303 274 424 3 32 -1 79 -8 103 -15
55 -76 126 -137 162 -44 26 -46 26 -191 20 -342 -13 -908 -161 -1687 -442
-493 -178 -1088 -416 -1168 -467 -164 -104 -135 -247 75 -382 29 -18 660 -284
1402 -591 l1350 -558 75 6 c105 8 194 53 234 119 53 86 47 210 -18 370 -17 41
-44 78 -95 130 -90 91 -184 211 -238 303 -38 66 -99 221 -91 230 3 2 121 0
264 -5 1863 -65 4377 -73 6015 -20 1410 46 2610 129 3540 246 151 18 282 34
291 34 11 0 48 -65 117 -209 289 -597 417 -941 478 -1286 18 -107 25 -374 11
-455 l-8 -45 35 68 c95 187 318 413 676 686 236 180 432 313 1088 736 315 202
526 358 914 675 35 28 -79 21 1088 69 3090 129 5847 194 7436 175 l580 -7 938
-873 c749 -698 946 -876 977 -885 76 -23 156 24 177 104 10 34 6 62 -13 109
-4 9 -373 358 -821 774 -447 417 -812 759 -811 760 4 4 539 -17 623 -24 l82
-7 906 -845 c659 -614 919 -850 951 -864 39 -17 49 -18 87 -7 78 24 119 94
103 177 -8 44 73 -35 -847 822 -405 378 -735 688 -733 690 4 5 318 -25 470
-44 107 -14 123 -18 150 -43 17 -16 401 -380 854 -809 582 -552 833 -785 858
-793 106 -35 213 69 184 178 -10 38 -94 120 -841 829 l-830 787 41 31 c22 17
414 317 872 666 495 378 841 649 854 669 77 114 -50 263 -177 208 -19 -8 -453
-335 -965 -726 -539 -412 -936 -709 -945 -706 -8 2 -116 13 -240 25 -124 11
-248 24 -276 28 l-50 7 797 609 c861 656 836 635 826 722 -10 88 -95 150 -176
125 -25 -7 -360 -257 -967 -721 l-929 -710 -210 6 c-115 4 -249 9 -296 13
l-86 6 760 580 c418 319 766 589 774 601 80 122 -48 281 -175 217 -20 -10
-439 -326 -931 -701 l-893 -683 -1377 -3 c-1275 -4 -1579 -8 -2736 -36 -859
-21 -2062 -60 -2980 -95 -836 -33 -1613 -65 -1673 -69 l-63 -5 53 60 c404 461
571 861 503 1207 -20 97 -88 238 -153 315 -212 249 -625 385 -1022 337 -466
-57 -838 -306 -1029 -688 -37 -74 -97 -248 -107 -309 -13 -81 -25 -67 -194
212 -225 372 -394 599 -572 771 -181 174 -350 269 -521 293 -43 6 -84 10 -90
10 -7 -1 -34 -5 -62 -9z"/>
</g>
</svg>
