<!--?xml version="1.0" standalone="no"?-->

<svg version="1.0" xmlns="http://www.w3.org/2000/svg" width="300.000000pt" height="300.000000pt" viewBox="0 0 300.000000 300.000000" preserveAspectRatio="xMidYMid meet">
<g transform="translate(0.000000,300.000000) scale(0.100000,-0.100000)" fill="#161616" stroke="none">
<path d="M787 2208 c5 -7 35 -44 65 -83 63 -79 100 -143 118 -198 13 -42 30
-40 30 4 0 16 5 29 12 29 6 0 153 -141 327 -313 174 -172 407 -402 518 -511
197 -195 203 -201 214 -254 10 -49 20 -63 114 -160 57 -59 107 -104 111 -100
4 5 1 26 -6 48 -10 31 -11 46 -1 66 12 26 24 27 94 7 40 -11 8 28 -99 121
-107 92 -114 96 -158 96 l-47 0 -285 283 c-157 155 -393 388 -525 517 -131
129 -239 240 -239 247 0 6 21 15 48 19 26 4 40 9 32 12 -8 2 -39 15 -68 28
-29 13 -55 24 -59 24 -13 0 -149 89 -167 109 -21 23 -45 30 -29 9z" id="node1" class="node"></path>
</g>
<g transform="translate(0.000000,300.000000) scale(0.100000,-0.100000)" fill="#9E9E9E" stroke="none">

</g>
</svg>