<?xml version="1.0" encoding="UTF-8" standalone="no"?>
<!-- Generator: Adobe Illustrator 12.0.1, SVG Export Plug-In . SVG Version: 6.00 Build 51448)  -->

<svg
   xmlns:dc="http://purl.org/dc/elements/1.1/"
   xmlns:cc="http://creativecommons.org/ns#"
   xmlns:rdf="http://www.w3.org/1999/02/22-rdf-syntax-ns#"
   xmlns:svg="http://www.w3.org/2000/svg"
   xmlns="http://www.w3.org/2000/svg"
   xmlns:sodipodi="http://sodipodi.sourceforge.net/DTD/sodipodi-0.dtd"
   xmlns:inkscape="http://www.inkscape.org/namespaces/inkscape"
   version="1.1"
   id="Layer_1"
   width="553.49402"
   height="749.25"
   viewBox="0 0 553.49404 749.25"
   overflow="visible"
   enable-background="new 0 0 753.35 2040.391"
   xml:space="preserve"
   inkscape:version="0.91 r13725"
   sodipodi:docname="LetterS.svg"
   style="overflow:visible"><sodipodi:namedview
     pagecolor="#ffffff"
     bordercolor="#666666"
     borderopacity="1"
     objecttolerance="10"
     gridtolerance="10"
     guidetolerance="10"
     inkscape:pageopacity="1"
     inkscape:pageshadow="2"
     inkscape:window-width="1858"
     inkscape:window-height="1058"
     id="namedview1923"
     showgrid="false"
     inkscape:zoom="0.89422756"
     inkscape:cx="276.74701"
     inkscape:cy="374.625"
     inkscape:window-x="-8"
     inkscape:window-y="-8"
     inkscape:window-maximized="1"
     inkscape:current-layer="Layer_1"
     showguides="false"
     fit-margin-top="0"
     fit-margin-left="0"
     fit-margin-right="0"
     fit-margin-bottom="0" /><metadata
     id="metadata1927"><rdf:RDF><cc:Work
         rdf:about=""><dc:format>image/svg+xml</dc:format><dc:type
           rdf:resource="http://purl.org/dc/dcmitype/StillImage" /><dc:title /></cc:Work></rdf:RDF></metadata><defs
     id="defs1925"><filter
       style="color-interpolation-filters:sRGB"
       inkscape:label="Blur"
       id="filter35393"><feGaussianBlur
         stdDeviation="2 2"
         result="blur"
         id="feGaussianBlur35395" /></filter><filter
       inkscape:menu-tooltip="Bright metallic effect for any color"
       inkscape:menu="Bevels"
       inkscape:label="Blur"
       style="color-interpolation-filters:sRGB"
       id="filter35577"
       height="1"
       width="1"
       y="0"
       x="0"><feGaussianBlur
         result="result6"
         stdDeviation="8"
         in="SourceGraphic"
         id="feGaussianBlur35579" /><feComposite
         in2="SourceGraphic"
         in="result6"
         operator="xor"
         result="result10"
         id="feComposite35581" /><feGaussianBlur
         result="result2"
         stdDeviation="8"
         id="feGaussianBlur35583" /><feComposite
         in2="SourceGraphic"
         operator="atop"
         in="result10"
         result="result91"
         id="feComposite35585" /><feComposite
         result="result4"
         in="result2"
         operator="xor"
         in2="result91"
         id="feComposite35587" /><feGaussianBlur
         in="result4"
         result="result3"
         stdDeviation="4"
         id="feGaussianBlur35589" /><feSpecularLighting
         result="result5"
         specularExponent="5"
         specularConstant="1.10000002"
         surfaceScale="18"
         id="feSpecularLighting35591"><feDistantLight
           azimuth="235"
           elevation="55"
           id="feDistantLight35593" /></feSpecularLighting><feComposite
         in="result3"
         k3="1.1"
         k2="0.5"
         operator="arithmetic"
         result="result7"
         in2="result5"
         k1="0.5"
         id="feComposite35595"
         k4="0" /><feComposite
         in="result7"
         operator="atop"
         in2="SourceGraphic"
         result="fbSourceGraphic"
         id="feComposite35597" /><feColorMatrix
         result="fbSourceGraphicAlpha"
         in="fbSourceGraphic"
         values="0 0 0 -1 0 0 0 0 -1 0 0 0 0 -1 0 0 0 0 1 0"
         id="feColorMatrix36051" /><feGaussianBlur
         id="feGaussianBlur36053"
         stdDeviation="2 2"
         result="blur"
         in="fbSourceGraphic" /><feColorMatrix
         id="feColorMatrix36055"
         values="1 0 0 0 0 0 1 0 0 0 0 0 1 0 0 0 0 0 50 0 "
         result="colormatrix" /><feComposite
         id="feComposite36057"
         in2="fbSourceGraphic"
         in="colormatrix"
         operator="in" /></filter></defs><g
     id="g3367"
     transform="translate(-612.8194,55.914179)"><path
       transform="matrix(5,0,0,5,276.3715,-7100.6753)"
       inkscape:connector-curvature="0"
       style="fill:#ffcd00;fill-opacity:1;stroke:none;stroke-width:4;stroke-miterlimit:4;stroke-dasharray:none;stroke-opacity:1;filter:url(#filter35577)"
       id="path1403"
       d="m 167.004,1501.766 c 0,11.959 -5.012,21.896 -15.033,29.811 -9.453,7.461 -20.672,11.189 -33.654,11.189 -11.846,0 -21.84,-2.846 -29.98,-8.539 -9.055,-6.375 -13.582,-15.025 -13.582,-25.955 0,-7.684 3.145,-14.273 9.436,-19.766 6.291,-5.493 13.85,-8.24 22.674,-8.24 8.598,0 15.572,1.65 20.924,4.947 5.977,3.697 8.967,8.93 8.967,15.697 0,4.947 -2.01,9.057 -6.027,12.326 -4.017,3.269 -8.676,4.904 -13.975,4.904 -4.846,0 -8.92,-0.912 -12.225,-2.74 -3.934,-2.168 -5.898,-5.248 -5.898,-9.244 0,-2.396 0.99,-4.395 2.975,-5.994 1.529,-1.254 2.889,-1.967 4.08,-2.139 1.191,-0.172 1.844,-0.258 1.957,-0.258 0.455,0 0.684,0.172 0.684,0.516 -0.113,0.344 -0.229,0.686 -0.342,1.029 -0.059,0.115 -0.172,0.459 -0.342,1.029 -0.342,1.145 -0.512,2.404 -0.512,3.777 0,1.773 0.898,3.305 2.695,4.592 1.797,1.289 3.75,1.932 5.859,1.932 3.535,0 6.473,-1.078 8.812,-3.234 2.338,-2.156 3.508,-4.822 3.508,-8 0,-4.766 -2.363,-8.482 -7.09,-11.15 -4.102,-2.326 -9.027,-3.49 -14.779,-3.49 -7.348,0 -13.697,2.16 -19.049,6.479 -5.639,4.547 -8.457,10.23 -8.457,17.049 0,8.867 4.244,15.971 12.732,21.312 7.574,4.773 16.604,7.16 27.086,7.16 10.652,0 19.795,-3.301 27.43,-9.904 7.918,-6.83 11.877,-15.312 11.877,-25.445 0,-5.52 -1.311,-10.359 -3.928,-14.516 -2.277,-3.643 -5.779,-7.143 -10.506,-10.502 -3.246,-2.334 -8.17,-5.209 -14.773,-8.627 -8.426,-3.984 -16.824,-8 -25.193,-12.043 -8.484,-4.953 -12.725,-10.791 -12.725,-17.51 0,-6.662 3.393,-11.844 10.18,-15.545 5.875,-3.188 13.031,-4.783 21.473,-4.783 6.443,0 11.547,0.709 15.312,2.125 5.189,1.928 7.785,5.129 7.785,9.605 0,1.812 -0.729,3.441 -2.182,4.887 -1.453,1.446 -2.736,2.225 -3.848,2.338 -1.113,0.113 -1.926,0.17 -2.438,0.17 -1.256,0 -2.311,-0.197 -3.164,-0.596 -0.627,-0.453 -0.939,-0.738 -0.939,-0.852 0,-0.283 0.199,-0.623 0.598,-1.021 0.797,-0.793 1.367,-1.631 1.709,-2.512 0.342,-0.879 0.514,-1.803 0.514,-2.768 0,-2.779 -1.541,-4.879 -4.623,-6.299 -2.453,-1.135 -5.535,-1.703 -9.244,-1.703 -5.992,0 -10.986,0.941 -14.982,2.822 -4.852,2.281 -7.275,5.561 -7.275,9.838 0,3.137 1.736,6.018 5.213,8.639 2.449,1.826 6.721,4.078 12.816,6.758 9.055,3.93 14.324,6.264 15.807,7.004 7.633,3.703 13.441,7.09 17.43,10.164 5.354,4.102 9.312,8.742 11.877,13.922 2.902,5.868 4.355,12.985 4.355,21.354 z" /><g
       id="g3364"><path
         inkscape:connector-curvature="0"
         style="opacity:0.40100002;fill:#ffcd00;fill-opacity:1;stroke:none;stroke-width:4;stroke-miterlimit:4;stroke-dasharray:none;stroke-opacity:1"
         id="path36239"
         d="m 1112.5098,409.27302 c 0,59.795 -25.06,109.48 -75.165,149.055 -47.26502,37.305 -103.36002,55.945 -168.27002,55.945 -59.23,0 -109.2,-14.23 -149.9,-42.695 -45.27499,-31.875 -67.90999,-75.125 -67.90999,-129.775 0,-38.42 15.725,-71.365 47.17999,-98.83 31.455,-27.465 69.25,-41.2 113.37,-41.2 42.99,0 77.86,8.25 104.62,24.735 29.885,18.485 44.835,44.65 44.835,78.485 0,24.735 -10.05,45.285 -30.135,61.63 -20.085,16.345 -43.38,24.52 -69.875,24.52 -24.23,0 -44.6,-4.56 -61.125,-13.7 -19.67,-10.84 -29.49,-26.24 -29.49,-46.22 0,-11.98 4.95,-21.975 14.875,-29.97 7.645,-6.27 14.445,-9.835 20.4,-10.695 5.955,-0.86 9.22,-1.29 9.785,-1.29 2.275,0 3.42,0.86 3.42,2.58 -0.565,1.72 -1.145,3.43 -1.71,5.145 -0.295,0.575 -0.86,2.295 -1.71,5.145 -1.71,5.725 -2.56,12.02 -2.56,18.885 0,8.865 4.49,16.525 13.475,22.96 8.985,6.445 18.75,9.66 29.295,9.66 17.675,0 32.365,-5.39 44.06,-16.17 11.69,-10.78 17.54,-24.11 17.54,-40 0,-23.83 -11.815,-42.41 -35.45,-55.75 -20.51,-11.63 -45.135,-17.45 -73.895,-17.45 -36.74,0 -68.485,10.8 -95.245,32.395 -28.19499,22.735 -42.28499,51.15 -42.28499,85.245 0,44.335 21.22,79.855 63.65999,106.56 37.87,23.865 83.02,35.8 135.43,35.8 53.26,0 98.975,-16.505 137.15002,-49.52 39.59,-34.15 59.385,-76.56 59.385,-127.225 0,-27.6 -6.555,-51.795 -19.64,-72.58 -11.385,-18.215 -28.895,-35.715 -52.53002,-52.51 -16.23,-11.67 -40.85,-26.045 -73.865,-43.135 -42.13,-19.92 -84.12,-40 -125.965,-60.215 -42.42,-24.765 -63.625,-53.955 -63.625,-87.549994 0,-33.31 16.965,-59.220004 50.9,-77.725004 29.375,-15.9400001 65.155,-23.915 107.365,-23.915 32.215,0 57.735,3.5449999 76.56,10.62499988 25.945,9.64000012 38.92502,25.64500012 38.92502,48.02500012 0,9.060004 -3.645,17.205004 -10.91002,24.435004 -7.265,7.23 -13.68,11.125 -19.24,11.69 -5.565,0.565 -9.63,0.85 -12.19,0.85 -6.28,0 -11.555,-0.985 -15.82,-2.98 -3.135,-2.265 -4.695,-3.69 -4.695,-4.26 0,-1.415 0.995,-3.115 2.99,-5.105 3.985,-3.965 6.835,-8.155 8.545,-12.56 1.71,-4.395 2.57,-9.015004 2.57,-13.840004 0,-13.895 -7.705,-24.395 -23.115,-31.495 -12.265,-5.6749999 -27.675,-8.5149999 -46.22,-8.5149999 -29.96,0 -54.93,4.7049999 -74.91,14.1099999 -24.26,11.405 -36.375,27.805 -36.375,49.190004 0,15.685 8.68,30.089994 26.065,43.194994 12.245,9.13 33.605,20.39 64.08,33.79 45.275,19.65 71.62,31.32 79.035,35.02 38.165,18.515 67.20502,35.45 87.15002,50.82 26.77,20.51 46.56,43.71 59.385,69.61 14.51,29.34 21.775,64.925 21.775,106.77 z" /></g></g></svg>